# xmcd
#
# Track frame offsets: 
#        183
#        22925
#        40508
#        59508
#        75555
#        98700
#        114813
#        134363
#        151043
#        175618
#
# Disc length: 2623 seconds
#
# Revision: 1
# Processed by: cddbd v1.5.2PL0 Copyright (c) Steve Scherf et al.
# Submitted via: ExactAudioCopyFreeDBPlugin 1.0
#
DISCID=640a3d0a
DTITLE=Chris de Burgh - Spanish Train And Other Stories
DYEAR=1975
DGENRE=Pop
TTITLE0=Spanish Train
TTITLE1=Lonely Sky
TTITLE2=This Song For You
TTITLE3=Patricia The Stripper
TTITLE4=A Spaceman Came Travelling
TTITLE5=I'm Going Home
TTITLE6=The Painter
TTITLE7=Old Friend
TTITLE8=The Tower
TTITLE9=Just Another Poor Boy
EXTD=
EXTT0=
EXTT1=
EXTT2=
EXTT3=
EXTT4=
EXTT5=
EXTT6=
EXTT7=
EXTT8=
EXTT9=
PLAYORDER=
